<?xml version="1.0" encoding="utf-8"?>
<!-- Generator: Adobe Illustrator 19.0.0, SVG Export Plug-In . SVG Version: 6.00 Build 0)  -->
<svg version="1.1" id="Слой_1" xmlns="http://www.w3.org/2000/svg" xmlns:xlink="http://www.w3.org/1999/xlink" x="0px" y="0px"
	 width="95px" height="94px" viewBox="0 0 95 94" enable-background="new 0 0 95 94" xml:space="preserve">
<g id="XMLID_2_">
	<g id="XMLID_3_">
		<path id="XMLID_4_" fill="#ebbe14" d="M5.1,84.5c0,0-2.8,0.3-4.7,0.5c-0.2,0-0.3,0.1-0.4,0.3c-0.1,0.2,0,0.3,0.1,0.5
			c1.4,1.3,3.5,3.1,3.5,3.1c0,0-0.6,2.7-1,4.6c0,0.2,0,0.3,0.2,0.4C3,94,3.2,94,3.4,93.9C5,93,7.5,91.6,7.5,91.6s2.5,1.4,4.1,2.3
			c0.2,0.1,0.3,0.1,0.5,0c0.1-0.1,0.2-0.3,0.2-0.4c-0.4-1.8-1-4.6-1-4.6s2.1-1.9,3.5-3.1c0.1-0.1,0.2-0.3,0.1-0.5
			c-0.1-0.2-0.2-0.3-0.4-0.3c-1.9-0.2-4.7-0.5-4.7-0.5s-1.2-2.5-2-4.2C7.8,80.1,7.7,80,7.5,80c-0.2,0-0.3,0.1-0.4,0.3
			C6.3,82,5.1,84.5,5.1,84.5z"/>
	</g>
</g>
<g id="XMLID_1_">
	<g id="XMLID_5_">
		<path id="XMLID_6_" fill="#ebbe14" d="M25.1,84.5c0,0-2.8,0.3-4.7,0.5c-0.2,0-0.3,0.1-0.4,0.3c-0.1,0.2,0,0.3,0.1,0.5
			c1.4,1.3,3.5,3.1,3.5,3.1c0,0-0.6,2.7-1,4.6c0,0.2,0,0.3,0.2,0.4c0.1,0.1,0.3,0.1,0.5,0c1.7-0.9,4.1-2.3,4.1-2.3s2.5,1.4,4.1,2.3
			c0.2,0.1,0.3,0.1,0.5,0c0.1-0.1,0.2-0.3,0.2-0.4c-0.4-1.8-1-4.6-1-4.6s2.1-1.9,3.5-3.1c0.1-0.1,0.2-0.3,0.1-0.5
			c-0.1-0.2-0.2-0.3-0.4-0.3c-1.9-0.2-4.7-0.5-4.7-0.5s-1.2-2.5-2-4.2c-0.1-0.2-0.2-0.3-0.4-0.3c-0.2,0-0.3,0.1-0.4,0.3
			C26.2,82,25.1,84.5,25.1,84.5z"/>
	</g>
</g>
<g id="XMLID_7_">
	<g id="XMLID_8_">
		<path id="XMLID_9_" fill="#ebbe14" d="M45,84.5c0,0-2.8,0.3-4.7,0.5c-0.2,0-0.3,0.1-0.4,0.3c-0.1,0.2,0,0.3,0.1,0.5
			c1.4,1.3,3.5,3.1,3.5,3.1c0,0-0.6,2.7-1,4.6c0,0.2,0,0.3,0.2,0.4c0.1,0.1,0.3,0.1,0.5,0c1.7-0.9,4.1-2.3,4.1-2.3s2.5,1.4,4.1,2.3
			c0.2,0.1,0.3,0.1,0.5,0c0.1-0.1,0.2-0.3,0.2-0.4c-0.4-1.8-1-4.6-1-4.6s2.1-1.9,3.5-3.1c0.1-0.1,0.2-0.3,0.1-0.5
			c-0.1-0.2-0.2-0.3-0.4-0.3c-1.9-0.2-4.7-0.5-4.7-0.5s-1.2-2.5-2-4.2c-0.1-0.2-0.2-0.3-0.4-0.3c-0.2,0-0.3,0.1-0.4,0.3
			C46.2,82,45,84.5,45,84.5z"/>
	</g>
</g>
<g id="XMLID_10_">
	<g id="XMLID_11_">
		<path id="XMLID_12_" fill="#ebbe14" d="M65.1,84.5c0,0-2.8,0.3-4.7,0.5c-0.2,0-0.3,0.1-0.4,0.3c-0.1,0.2,0,0.3,0.1,0.5
			c1.4,1.3,3.5,3.1,3.5,3.1c0,0-0.6,2.7-1,4.6c0,0.2,0,0.3,0.2,0.4c0.1,0.1,0.3,0.1,0.5,0c1.7-0.9,4.1-2.3,4.1-2.3s2.5,1.4,4.1,2.3
			c0.2,0.1,0.3,0.1,0.5,0c0.1-0.1,0.2-0.3,0.2-0.4c-0.4-1.8-1-4.6-1-4.6s2.1-1.9,3.5-3.1c0.1-0.1,0.2-0.3,0.1-0.5
			c-0.1-0.2-0.2-0.3-0.4-0.3c-1.9-0.2-4.7-0.5-4.7-0.5s-1.2-2.5-2-4.2c-0.1-0.2-0.2-0.3-0.4-0.3c-0.2,0-0.3,0.1-0.4,0.3
			C66.3,82,65.1,84.5,65.1,84.5z"/>
	</g>
</g>
<g id="XMLID_13_">
	<g id="XMLID_14_">
		<path id="XMLID_15_" fill="#ebbe14" d="M85.1,84.5c0,0-2.8,0.3-4.7,0.5c-0.2,0-0.3,0.1-0.4,0.3c-0.1,0.2,0,0.3,0.1,0.5
			c1.4,1.3,3.5,3.1,3.5,3.1c0,0-0.6,2.7-1,4.6c0,0.2,0,0.3,0.2,0.4c0.1,0.1,0.3,0.1,0.5,0c1.7-0.9,4.1-2.3,4.1-2.3s2.5,1.4,4.1,2.3
			c0.2,0.1,0.3,0.1,0.5,0c0.1-0.1,0.2-0.3,0.2-0.4c-0.4-1.8-1-4.6-1-4.6s2.1-1.9,3.5-3.1c0.1-0.1,0.2-0.3,0.1-0.5
			c-0.1-0.2-0.2-0.3-0.4-0.3c-1.9-0.2-4.7-0.5-4.7-0.5s-1.2-2.5-2-4.2c-0.1-0.2-0.2-0.3-0.4-0.3c-0.2,0-0.3,0.1-0.4,0.3
			C86.3,82,85.1,84.5,85.1,84.5z"/>
	</g>
</g>
<g id="XMLID_28_">
	<g id="XMLID_29_">
		<path id="XMLID_30_" fill="#ebbe14" d="M5.1,68.5c0,0-2.8,0.3-4.7,0.5c-0.2,0-0.3,0.1-0.4,0.3c-0.1,0.2,0,0.3,0.1,0.5
			c1.4,1.3,3.5,3.1,3.5,3.1c0,0-0.6,2.7-1,4.6c0,0.2,0,0.3,0.2,0.4C3,78,3.2,78,3.4,78C5,77,7.5,75.7,7.5,75.7S10,77,11.6,78
			c0.2,0.1,0.3,0.1,0.5,0c0.1-0.1,0.2-0.3,0.2-0.4c-0.4-1.8-1-4.6-1-4.6s2.1-1.9,3.5-3.1c0.1-0.1,0.2-0.3,0.1-0.5
			c-0.1-0.2-0.2-0.3-0.4-0.3c-1.9-0.2-4.7-0.5-4.7-0.5s-1.2-2.5-2-4.2C7.8,64.1,7.7,64,7.5,64c-0.2,0-0.3,0.1-0.4,0.3
			C6.3,66,5.1,68.5,5.1,68.5z"/>
	</g>
</g>
<g id="XMLID_25_">
	<g id="XMLID_26_">
		<path id="XMLID_27_" fill="#ebbe14" d="M25.1,68.5c0,0-2.8,0.3-4.7,0.5c-0.2,0-0.3,0.1-0.4,0.3c-0.1,0.2,0,0.3,0.1,0.5
			c1.4,1.3,3.5,3.1,3.5,3.1c0,0-0.6,2.7-1,4.6c0,0.2,0,0.3,0.2,0.4c0.1,0.1,0.3,0.1,0.5,0c1.7-0.9,4.1-2.3,4.1-2.3s2.5,1.4,4.1,2.3
			c0.2,0.1,0.3,0.1,0.5,0c0.1-0.1,0.2-0.3,0.2-0.4c-0.4-1.8-1-4.6-1-4.6s2.1-1.9,3.5-3.1c0.1-0.1,0.2-0.3,0.1-0.5
			c-0.1-0.2-0.2-0.3-0.4-0.3c-1.9-0.2-4.7-0.5-4.7-0.5s-1.2-2.5-2-4.2c-0.1-0.2-0.2-0.3-0.4-0.3c-0.2,0-0.3,0.1-0.4,0.3
			C26.2,66,25.1,68.5,25.1,68.5z"/>
	</g>
</g>
<g id="XMLID_22_">
	<g id="XMLID_23_">
		<path id="XMLID_24_" fill="#ebbe14" d="M45,68.5c0,0-2.8,0.3-4.7,0.5c-0.2,0-0.3,0.1-0.4,0.3c-0.1,0.2,0,0.3,0.1,0.5
			c1.4,1.3,3.5,3.1,3.5,3.1c0,0-0.6,2.7-1,4.6c0,0.2,0,0.3,0.2,0.4c0.1,0.1,0.3,0.1,0.5,0c1.7-0.9,4.1-2.3,4.1-2.3s2.5,1.4,4.1,2.3
			c0.2,0.1,0.3,0.1,0.5,0c0.1-0.1,0.2-0.3,0.2-0.4c-0.4-1.8-1-4.6-1-4.6s2.1-1.9,3.5-3.1c0.1-0.1,0.2-0.3,0.1-0.5
			c-0.1-0.2-0.2-0.3-0.4-0.3c-1.9-0.2-4.7-0.5-4.7-0.5s-1.2-2.5-2-4.2c-0.1-0.2-0.2-0.3-0.4-0.3c-0.2,0-0.3,0.1-0.4,0.3
			C46.2,66,45,68.5,45,68.5z"/>
	</g>
</g>
<g id="XMLID_19_">
	<g id="XMLID_20_">
		<path id="XMLID_21_" fill="#ebbe14" d="M65.1,68.5c0,0-2.8,0.3-4.7,0.5c-0.2,0-0.3,0.1-0.4,0.3c-0.1,0.2,0,0.3,0.1,0.5
			c1.4,1.3,3.5,3.1,3.5,3.1c0,0-0.6,2.7-1,4.6c0,0.2,0,0.3,0.2,0.4c0.1,0.1,0.3,0.1,0.5,0c1.7-0.9,4.1-2.3,4.1-2.3S70,77,71.6,78
			c0.2,0.1,0.3,0.1,0.5,0c0.1-0.1,0.2-0.3,0.2-0.4c-0.4-1.8-1-4.6-1-4.6s2.1-1.9,3.5-3.1c0.1-0.1,0.2-0.3,0.1-0.5
			c-0.1-0.2-0.2-0.3-0.4-0.3c-1.9-0.2-4.7-0.5-4.7-0.5s-1.2-2.5-2-4.2c-0.1-0.2-0.2-0.3-0.4-0.3c-0.2,0-0.3,0.1-0.4,0.3
			C66.3,66,65.1,68.5,65.1,68.5z"/>
	</g>
</g>
<g id="XMLID_16_">
	<g id="XMLID_17_">
		<path id="XMLID_18_" fill="#d6d6d6" d="M85.1,68.5c0,0-2.8,0.3-4.7,0.5c-0.2,0-0.3,0.1-0.4,0.3c-0.1,0.2,0,0.3,0.1,0.5
			c1.4,1.3,3.5,3.1,3.5,3.1c0,0-0.6,2.7-1,4.6c0,0.2,0,0.3,0.2,0.4c0.1,0.1,0.3,0.1,0.5,0c1.7-0.9,4.1-2.3,4.1-2.3S90,77,91.6,78
			c0.2,0.1,0.3,0.1,0.5,0c0.1-0.1,0.2-0.3,0.2-0.4c-0.4-1.8-1-4.6-1-4.6s2.1-1.9,3.5-3.1c0.1-0.1,0.2-0.3,0.1-0.5
			c-0.1-0.2-0.2-0.3-0.4-0.3c-1.9-0.2-4.7-0.5-4.7-0.5s-1.2-2.5-2-4.2c-0.1-0.2-0.2-0.3-0.4-0.3c-0.2,0-0.3,0.1-0.4,0.3
			C86.3,66,85.1,68.5,85.1,68.5z"/>
	</g>
</g>
<g id="XMLID_43_">
	<g id="XMLID_44_">
		<path id="XMLID_45_" fill="#ebbe14" d="M5.1,52.4c0,0-2.8,0.3-4.7,0.5C0.2,52.9,0,53,0,53.2c-0.1,0.2,0,0.3,0.1,0.5
			c1.4,1.3,3.5,3.1,3.5,3.1c0,0-0.6,2.7-1,4.6c0,0.2,0,0.3,0.2,0.4c0.1,0.1,0.3,0.1,0.5,0c1.7-0.9,4.1-2.3,4.1-2.3s2.5,1.4,4.1,2.3
			c0.2,0.1,0.3,0.1,0.5,0c0.1-0.1,0.2-0.3,0.2-0.4c-0.4-1.8-1-4.6-1-4.6s2.1-1.9,3.5-3.1c0.1-0.1,0.2-0.3,0.1-0.5
			c-0.1-0.2-0.2-0.3-0.4-0.3c-1.9-0.2-4.7-0.5-4.7-0.5s-1.2-2.5-2-4.2c-0.1-0.2-0.2-0.3-0.4-0.3c-0.2,0-0.3,0.1-0.4,0.3
			C6.3,49.8,5.1,52.4,5.1,52.4z"/>
	</g>
</g>
<g id="XMLID_40_">
	<g id="XMLID_41_">
		<path id="XMLID_42_" fill="#ebbe14" d="M25,52.4c0,0-2.8,0.3-4.7,0.5c-0.2,0-0.3,0.1-0.4,0.3c-0.1,0.2,0,0.3,0.1,0.5
			c1.4,1.3,3.5,3.1,3.5,3.1c0,0-0.6,2.7-1,4.6c0,0.2,0,0.3,0.2,0.4c0.1,0.1,0.3,0.1,0.5,0c1.7-0.9,4.1-2.3,4.1-2.3s2.5,1.4,4.1,2.3
			c0.2,0.1,0.3,0.1,0.5,0c0.1-0.1,0.2-0.3,0.2-0.4c-0.4-1.8-1-4.6-1-4.6s2.1-1.9,3.5-3.1c0.1-0.1,0.2-0.3,0.1-0.5
			c-0.1-0.2-0.2-0.3-0.4-0.3c-1.9-0.2-4.7-0.5-4.7-0.5s-1.2-2.5-2-4.2c-0.1-0.2-0.2-0.3-0.4-0.3c-0.2,0-0.3,0.1-0.4,0.3
			C26.2,49.8,25,52.4,25,52.4z"/>
	</g>
</g>
<g id="XMLID_37_">
	<g id="XMLID_38_">
		<path id="XMLID_39_" fill="#ebbe14" d="M45,52.4c0,0-2.8,0.3-4.7,0.5c-0.2,0-0.3,0.1-0.4,0.3c-0.1,0.2,0,0.3,0.1,0.5
			c1.4,1.3,3.5,3.1,3.5,3.1c0,0-0.6,2.7-1,4.6c0,0.2,0,0.3,0.2,0.4c0.1,0.1,0.3,0.1,0.5,0c1.7-0.9,4.1-2.3,4.1-2.3s2.5,1.4,4.1,2.3
			c0.2,0.1,0.3,0.1,0.5,0c0.1-0.1,0.2-0.3,0.2-0.4c-0.4-1.8-1-4.6-1-4.6s2.1-1.9,3.5-3.1c0.1-0.1,0.2-0.3,0.1-0.5
			c-0.1-0.2-0.2-0.3-0.4-0.3c-1.9-0.2-4.7-0.5-4.7-0.5s-1.2-2.5-2-4.2c-0.1-0.2-0.2-0.3-0.4-0.3c-0.2,0-0.3,0.1-0.4,0.3
			C46.2,49.8,45,52.4,45,52.4z"/>
	</g>
</g>
<g id="XMLID_34_">
	<g id="XMLID_35_">
		<path id="XMLID_36_" fill="#d6d6d6" d="M65.1,52.4c0,0-2.8,0.3-4.7,0.5c-0.2,0-0.3,0.1-0.4,0.3c-0.1,0.2,0,0.3,0.1,0.5
			c1.4,1.3,3.5,3.1,3.5,3.1c0,0-0.6,2.7-1,4.6c0,0.2,0,0.3,0.2,0.4c0.1,0.1,0.3,0.1,0.5,0c1.7-0.9,4.1-2.3,4.1-2.3s2.5,1.4,4.1,2.3
			c0.2,0.1,0.3,0.1,0.5,0c0.1-0.1,0.2-0.3,0.2-0.4c-0.4-1.8-1-4.6-1-4.6s2.1-1.9,3.5-3.1c0.1-0.1,0.2-0.3,0.1-0.5
			c-0.1-0.2-0.2-0.3-0.4-0.3c-1.9-0.2-4.7-0.5-4.7-0.5s-1.2-2.5-2-4.2c-0.1-0.2-0.2-0.3-0.4-0.3c-0.2,0-0.3,0.1-0.4,0.3
			C66.3,49.8,65.1,52.4,65.1,52.4z"/>
	</g>
</g>
<g id="XMLID_31_">
	<g id="XMLID_32_">
		<path id="XMLID_33_" fill="#d6d6d6" d="M85.1,52.4c0,0-2.8,0.3-4.7,0.5c-0.2,0-0.3,0.1-0.4,0.3c-0.1,0.2,0,0.3,0.1,0.5
			c1.4,1.3,3.5,3.1,3.5,3.1c0,0-0.6,2.7-1,4.6c0,0.2,0,0.3,0.2,0.4c0.1,0.1,0.3,0.1,0.5,0c1.7-0.9,4.1-2.3,4.1-2.3s2.5,1.4,4.1,2.3
			c0.2,0.1,0.3,0.1,0.5,0c0.1-0.1,0.2-0.3,0.2-0.4c-0.4-1.8-1-4.6-1-4.6s2.1-1.9,3.5-3.1c0.1-0.1,0.2-0.3,0.1-0.5
			c-0.1-0.2-0.2-0.3-0.4-0.3c-1.9-0.2-4.7-0.5-4.7-0.5s-1.2-2.5-2-4.2c-0.1-0.2-0.2-0.3-0.4-0.3c-0.2,0-0.3,0.1-0.4,0.3
			C86.3,49.8,85.1,52.4,85.1,52.4z"/>
	</g>
</g>
<g id="XMLID_58_">
	<g id="XMLID_59_">
		<path id="XMLID_60_" fill="#ebbe14" d="M5.1,36.4c0,0-2.8,0.3-4.7,0.5c-0.2,0-0.3,0.1-0.4,0.3c-0.1,0.2,0,0.3,0.1,0.5
			c1.4,1.3,3.5,3.1,3.5,3.1c0,0-0.6,2.7-1,4.6c0,0.2,0,0.3,0.2,0.4c0.1,0.1,0.3,0.1,0.5,0c1.7-0.9,4.1-2.3,4.1-2.3s2.5,1.4,4.1,2.3
			c0.2,0.1,0.3,0.1,0.5,0c0.1-0.1,0.2-0.3,0.2-0.4c-0.4-1.8-1-4.6-1-4.6s2.1-1.9,3.5-3.1c0.1-0.1,0.2-0.3,0.1-0.5
			c-0.1-0.2-0.2-0.3-0.4-0.3c-1.9-0.2-4.7-0.5-4.7-0.5s-1.2-2.5-2-4.2c-0.1-0.2-0.2-0.3-0.4-0.3c-0.2,0-0.3,0.1-0.4,0.3
			C6.3,33.8,5.1,36.4,5.1,36.4z"/>
	</g>
</g>
<g id="XMLID_55_">
	<g id="XMLID_56_">
		<path id="XMLID_57_" fill="#ebbe14" d="M25.1,36.4c0,0-2.8,0.3-4.7,0.5c-0.2,0-0.3,0.1-0.4,0.3c-0.1,0.2,0,0.3,0.1,0.5
			c1.4,1.3,3.5,3.1,3.5,3.1c0,0-0.6,2.7-1,4.6c0,0.2,0,0.3,0.2,0.4c0.1,0.1,0.3,0.1,0.5,0c1.7-0.9,4.1-2.3,4.1-2.3s2.5,1.4,4.1,2.3
			c0.2,0.1,0.3,0.1,0.5,0c0.1-0.1,0.2-0.3,0.2-0.4c-0.4-1.8-1-4.6-1-4.6s2.1-1.9,3.5-3.1c0.1-0.1,0.2-0.3,0.1-0.5
			c-0.1-0.2-0.2-0.3-0.4-0.3c-1.9-0.2-4.7-0.5-4.7-0.5s-1.2-2.5-2-4.2c-0.1-0.2-0.2-0.3-0.4-0.3c-0.2,0-0.3,0.1-0.4,0.3
			C26.2,33.8,25.1,36.4,25.1,36.4z"/>
	</g>
</g>
<g id="XMLID_52_">
	<g id="XMLID_53_">
		<path id="XMLID_54_" fill="#d6d6d6" d="M45,36.4c0,0-2.8,0.3-4.7,0.5c-0.2,0-0.3,0.1-0.4,0.3c-0.1,0.2,0,0.3,0.1,0.5
			c1.4,1.3,3.5,3.1,3.5,3.1c0,0-0.6,2.7-1,4.6c0,0.2,0,0.3,0.2,0.4c0.1,0.1,0.3,0.1,0.5,0c1.7-0.9,4.1-2.3,4.1-2.3s2.5,1.4,4.1,2.3
			c0.2,0.1,0.3,0.1,0.5,0c0.1-0.1,0.2-0.3,0.2-0.4c-0.4-1.8-1-4.6-1-4.6s2.1-1.9,3.5-3.1c0.1-0.1,0.2-0.3,0.1-0.5
			c-0.1-0.2-0.2-0.3-0.4-0.3c-1.9-0.2-4.7-0.5-4.7-0.5s-1.2-2.5-2-4.2c-0.1-0.2-0.2-0.3-0.4-0.3c-0.2,0-0.3,0.1-0.4,0.3
			C46.2,33.8,45,36.4,45,36.4z"/>
	</g>
</g>
<g id="XMLID_49_">
	<g id="XMLID_50_">
		<path id="XMLID_51_" fill="#d6d6d6" d="M65.1,36.4c0,0-2.8,0.3-4.7,0.5c-0.2,0-0.3,0.1-0.4,0.3c-0.1,0.2,0,0.3,0.1,0.5
			c1.4,1.3,3.5,3.1,3.5,3.1c0,0-0.6,2.7-1,4.6c0,0.2,0,0.3,0.2,0.4c0.1,0.1,0.3,0.1,0.5,0c1.7-0.9,4.1-2.3,4.1-2.3s2.5,1.4,4.1,2.3
			c0.2,0.1,0.3,0.1,0.5,0c0.1-0.1,0.2-0.3,0.2-0.4c-0.4-1.8-1-4.6-1-4.6s2.1-1.9,3.5-3.1c0.1-0.1,0.2-0.3,0.1-0.5
			c-0.1-0.2-0.2-0.3-0.4-0.3c-1.9-0.2-4.7-0.5-4.7-0.5s-1.2-2.5-2-4.2c-0.1-0.2-0.2-0.3-0.4-0.3c-0.2,0-0.3,0.1-0.4,0.3
			C66.3,33.8,65.1,36.4,65.1,36.4z"/>
	</g>
</g>
<g id="XMLID_46_">
	<g id="XMLID_47_">
		<path id="XMLID_48_" fill="#d6d6d6" d="M85.1,36.4c0,0-2.8,0.3-4.7,0.5c-0.2,0-0.3,0.1-0.4,0.3c-0.1,0.2,0,0.3,0.1,0.5
			c1.4,1.3,3.5,3.1,3.5,3.1c0,0-0.6,2.7-1,4.6c0,0.2,0,0.3,0.2,0.4c0.1,0.1,0.3,0.1,0.5,0c1.7-0.9,4.1-2.3,4.1-2.3s2.5,1.4,4.1,2.3
			c0.2,0.1,0.3,0.1,0.5,0c0.1-0.1,0.2-0.3,0.2-0.4c-0.4-1.8-1-4.6-1-4.6s2.1-1.9,3.5-3.1c0.1-0.1,0.2-0.3,0.1-0.5
			c-0.1-0.2-0.2-0.3-0.4-0.3c-1.9-0.2-4.7-0.5-4.7-0.5s-1.2-2.5-2-4.2c-0.1-0.2-0.2-0.3-0.4-0.3c-0.2,0-0.3,0.1-0.4,0.3
			C86.3,33.8,85.1,36.4,85.1,36.4z"/>
	</g>
</g>
<g id="XMLID_73_">
	<g id="XMLID_74_">
		<path id="XMLID_75_" fill="#ebbe14" d="M5,20.4c0,0-2.8,0.3-4.7,0.5c-0.2,0-0.3,0.1-0.4,0.3c-0.1,0.2,0,0.3,0.1,0.5
			c1.4,1.3,3.5,3.1,3.5,3.1c0,0-0.6,2.7-1,4.6c0,0.2,0,0.3,0.2,0.4c0.1,0.1,0.3,0.1,0.5,0c1.7-0.9,4.1-2.3,4.1-2.3s2.5,1.4,4.1,2.3
			c0.2,0.1,0.3,0.1,0.5,0c0.1-0.1,0.2-0.3,0.2-0.4c-0.4-1.8-1-4.6-1-4.6s2.1-1.9,3.5-3.1c0.1-0.1,0.2-0.3,0.1-0.5
			c-0.1-0.2-0.2-0.3-0.4-0.3c-1.9-0.2-4.7-0.5-4.7-0.5s-1.2-2.5-2-4.2c-0.1-0.2-0.2-0.3-0.4-0.3c-0.2,0-0.3,0.1-0.4,0.3
			C6.2,17.8,5,20.4,5,20.4z"/>
	</g>
</g>
<g id="XMLID_70_">
	<g id="XMLID_71_">
		<path id="XMLID_72_" fill="#d6d6d6" d="M25,20.4c0,0-2.8,0.3-4.7,0.5c-0.2,0-0.3,0.1-0.4,0.3c-0.1,0.2,0,0.3,0.1,0.5
			c1.4,1.3,3.5,3.1,3.5,3.1c0,0-0.6,2.7-1,4.6c0,0.2,0,0.3,0.2,0.4c0.1,0.1,0.3,0.1,0.5,0c1.7-0.9,4.1-2.3,4.1-2.3s2.5,1.4,4.1,2.3
			c0.2,0.1,0.3,0.1,0.5,0c0.1-0.1,0.2-0.3,0.2-0.4c-0.4-1.8-1-4.6-1-4.6s2.1-1.9,3.5-3.1c0.1-0.1,0.2-0.3,0.1-0.5
			c-0.1-0.2-0.2-0.3-0.4-0.3c-1.9-0.2-4.7-0.5-4.7-0.5s-1.2-2.5-2-4.2c-0.1-0.2-0.2-0.3-0.4-0.3c-0.2,0-0.3,0.1-0.4,0.3
			C26.2,17.8,25,20.4,25,20.4z"/>
	</g>
</g>
<g id="XMLID_67_">
	<g id="XMLID_68_">
		<path id="XMLID_69_" fill="#d6d6d6" d="M45,20.4c0,0-2.8,0.3-4.7,0.5c-0.2,0-0.3,0.1-0.4,0.3c-0.1,0.2,0,0.3,0.1,0.5
			c1.4,1.3,3.5,3.1,3.5,3.1c0,0-0.6,2.7-1,4.6c0,0.2,0,0.3,0.2,0.4c0.1,0.1,0.3,0.1,0.5,0c1.7-0.9,4.1-2.3,4.1-2.3s2.5,1.4,4.1,2.3
			c0.2,0.1,0.3,0.1,0.5,0c0.1-0.1,0.2-0.3,0.2-0.4c-0.4-1.8-1-4.6-1-4.6s2.1-1.9,3.5-3.1c0.1-0.1,0.2-0.3,0.1-0.5
			c-0.1-0.2-0.2-0.3-0.4-0.3c-1.9-0.2-4.7-0.5-4.7-0.5s-1.2-2.5-2-4.2c-0.1-0.2-0.2-0.3-0.4-0.3c-0.2,0-0.3,0.1-0.4,0.3
			C46.1,17.8,45,20.4,45,20.4z"/>
	</g>
</g>
<g id="XMLID_64_">
	<g id="XMLID_65_">
		<path id="XMLID_66_" fill="#d6d6d6" d="M65,20.4c0,0-2.8,0.3-4.7,0.5c-0.2,0-0.3,0.1-0.4,0.3c-0.1,0.2,0,0.3,0.1,0.5
			c1.4,1.3,3.5,3.1,3.5,3.1c0,0-0.6,2.7-1,4.6c0,0.2,0,0.3,0.2,0.4c0.1,0.1,0.3,0.1,0.5,0c1.7-0.9,4.1-2.3,4.1-2.3s2.5,1.4,4.1,2.3
			c0.2,0.1,0.3,0.1,0.5,0c0.1-0.1,0.2-0.3,0.2-0.4c-0.4-1.8-1-4.6-1-4.6s2.1-1.9,3.5-3.1c0.1-0.1,0.2-0.3,0.1-0.5
			c-0.1-0.2-0.2-0.3-0.4-0.3c-1.9-0.2-4.7-0.5-4.7-0.5s-1.2-2.5-2-4.2c-0.1-0.2-0.2-0.3-0.4-0.3c-0.2,0-0.3,0.1-0.4,0.3
			C66.2,17.8,65,20.4,65,20.4z"/>
	</g>
</g>
<g id="XMLID_61_">
	<g id="XMLID_62_">
		<path id="XMLID_63_" fill="#d6d6d6" d="M85,20.4c0,0-2.8,0.3-4.7,0.5c-0.2,0-0.3,0.1-0.4,0.3c-0.1,0.2,0,0.3,0.1,0.5
			c1.4,1.3,3.5,3.1,3.5,3.1c0,0-0.6,2.7-1,4.6c0,0.2,0,0.3,0.2,0.4c0.1,0.1,0.3,0.1,0.5,0c1.7-0.9,4.1-2.3,4.1-2.3s2.5,1.4,4.1,2.3
			c0.2,0.1,0.3,0.1,0.5,0c0.1-0.1,0.2-0.3,0.2-0.4c-0.4-1.8-1-4.6-1-4.6s2.1-1.9,3.5-3.1c0.1-0.1,0.2-0.3,0.1-0.5
			c-0.1-0.2-0.2-0.3-0.4-0.3c-1.9-0.2-4.7-0.5-4.7-0.5s-1.2-2.5-2-4.2c-0.1-0.2-0.2-0.3-0.4-0.3c-0.2,0-0.3,0.1-0.4,0.3
			C86.2,17.8,85,20.4,85,20.4z"/>
	</g>
</g>
<g id="XMLID_88_">
	<g id="XMLID_89_">
		<path id="XMLID_90_" fill="#d6d6d6" d="M5.1,4.6c0,0-2.8,0.3-4.7,0.5C0.2,5.1,0.1,5.3,0,5.4C0,5.6,0,5.8,0.1,5.9
			C1.6,7.1,3.7,9,3.7,9c0,0-0.6,2.7-1,4.6c0,0.2,0,0.3,0.2,0.4c0.1,0.1,0.3,0.1,0.5,0c1.7-0.9,4.1-2.3,4.1-2.3s2.5,1.4,4.1,2.3
			c0.2,0.1,0.3,0.1,0.5,0c0.1-0.1,0.2-0.3,0.2-0.4c-0.4-1.8-1-4.6-1-4.6s2.1-1.9,3.5-3.1C15,5.8,15,5.6,15,5.4
			c-0.1-0.2-0.2-0.3-0.4-0.3c-1.9-0.2-4.7-0.5-4.7-0.5s-1.2-2.5-2-4.2C7.8,0.2,7.7,0.1,7.5,0.1c-0.2,0-0.3,0.1-0.4,0.3
			C6.3,2.1,5.1,4.6,5.1,4.6z"/>
	</g>
</g>
<g id="XMLID_85_">
	<g id="XMLID_86_">
		<path id="XMLID_87_" fill="#d6d6d6" d="M25.1,4.6c0,0-2.8,0.3-4.7,0.5c-0.2,0-0.3,0.1-0.4,0.3c-0.1,0.2,0,0.3,0.1,0.5
			C21.5,7.1,23.6,9,23.6,9c0,0-0.6,2.7-1,4.6c0,0.2,0,0.3,0.2,0.4c0.1,0.1,0.3,0.1,0.5,0c1.7-0.9,4.1-2.3,4.1-2.3s2.5,1.4,4.1,2.3
			c0.2,0.1,0.3,0.1,0.5,0c0.1-0.1,0.2-0.3,0.2-0.4c-0.4-1.8-1-4.6-1-4.6s2.1-1.9,3.5-3.1c0.1-0.1,0.2-0.3,0.1-0.5
			c-0.1-0.2-0.2-0.3-0.4-0.3c-1.9-0.2-4.7-0.5-4.7-0.5s-1.2-2.5-2-4.2c-0.1-0.2-0.2-0.3-0.4-0.3c-0.2,0-0.3,0.1-0.4,0.3
			C26.2,2.1,25.1,4.6,25.1,4.6z"/>
	</g>
</g>
<g id="XMLID_82_">
	<g id="XMLID_83_">
		<path id="XMLID_84_" fill="#d6d6d6" d="M45,4.6c0,0-2.8,0.3-4.7,0.5c-0.2,0-0.3,0.1-0.4,0.3c-0.1,0.2,0,0.3,0.1,0.5
			C41.5,7.1,43.6,9,43.6,9c0,0-0.6,2.7-1,4.6c0,0.2,0,0.3,0.2,0.4c0.1,0.1,0.3,0.1,0.5,0c1.7-0.9,4.1-2.3,4.1-2.3s2.5,1.4,4.1,2.3
			c0.2,0.1,0.3,0.1,0.5,0c0.1-0.1,0.2-0.3,0.2-0.4c-0.4-1.8-1-4.6-1-4.6s2.1-1.9,3.5-3.1c0.1-0.1,0.2-0.3,0.1-0.5
			c-0.1-0.2-0.2-0.3-0.4-0.3c-1.9-0.2-4.7-0.5-4.7-0.5s-1.2-2.5-2-4.2c-0.1-0.2-0.2-0.3-0.4-0.3c-0.2,0-0.3,0.1-0.4,0.3
			C46.2,2.1,45,4.6,45,4.6z"/>
	</g>
</g>
<g id="XMLID_79_">
	<g id="XMLID_80_">
		<path id="XMLID_81_" fill="#d6d6d6" d="M65.1,4.6c0,0-2.8,0.3-4.7,0.5c-0.2,0-0.3,0.1-0.4,0.3c-0.1,0.2,0,0.3,0.1,0.5
			C61.6,7.1,63.7,9,63.7,9c0,0-0.6,2.7-1,4.6c0,0.2,0,0.3,0.2,0.4c0.1,0.1,0.3,0.1,0.5,0c1.7-0.9,4.1-2.3,4.1-2.3s2.5,1.4,4.1,2.3
			c0.2,0.1,0.3,0.1,0.5,0c0.1-0.1,0.2-0.3,0.2-0.4c-0.4-1.8-1-4.6-1-4.6s2.1-1.9,3.5-3.1C75,5.8,75,5.6,75,5.4
			c-0.1-0.2-0.2-0.3-0.4-0.3c-1.9-0.2-4.7-0.5-4.7-0.5s-1.2-2.5-2-4.2c-0.1-0.2-0.2-0.3-0.4-0.3c-0.2,0-0.3,0.1-0.4,0.3
			C66.3,2.1,65.1,4.6,65.1,4.6z"/>
	</g>
</g>
<g id="XMLID_76_">
	<g id="XMLID_77_">
		<path id="XMLID_78_" fill="#d6d6d6" d="M85.1,4.6c0,0-2.8,0.3-4.7,0.5c-0.2,0-0.3,0.1-0.4,0.3c-0.1,0.2,0,0.3,0.1,0.5
			C81.6,7.1,83.7,9,83.7,9c0,0-0.6,2.7-1,4.6c0,0.2,0,0.3,0.2,0.4c0.1,0.1,0.3,0.1,0.5,0c1.7-0.9,4.1-2.3,4.1-2.3s2.5,1.4,4.1,2.3
			c0.2,0.1,0.3,0.1,0.5,0c0.1-0.1,0.2-0.3,0.2-0.4c-0.4-1.8-1-4.6-1-4.6s2.1-1.9,3.5-3.1C95,5.8,95,5.6,95,5.4
			c-0.1-0.2-0.2-0.3-0.4-0.3c-1.9-0.2-4.7-0.5-4.7-0.5s-1.2-2.5-2-4.2c-0.1-0.2-0.2-0.3-0.4-0.3c-0.2,0-0.3,0.1-0.4,0.3
			C86.3,2.1,85.1,4.6,85.1,4.6z"/>
	</g>
</g>
</svg>
