<svg id="Layer_2" xmlns="http://www.w3.org/2000/svg" viewBox="0 0 170 201"><style>.st0,.st1{fill:none;stroke:#000;stroke-width:3;stroke-miterlimit:10}.st1{stroke-width:2}</style><path class="st0" d="M65 147H40.1c-1.7 0-2.7-1.9-1.7-3.4l16.3-23.1c1.2-1.7 3.9-.9 3.9 1.2V161m72.4-14h-24.9c-1.7 0-2.7-1.9-1.7-3.4l16.3-23.1c1.2-1.7 3.9-.9 3.9 1.2V161m-39.6.5c-6.4 0-11.5-5.1-11.5-11.5v-19c0-6.4 5.1-11.5 11.5-11.5s11.5 5.1 11.5 11.5v19c0 6.4-5.1 11.5-11.5 11.5zm-75.5-21h18m113 0h18"/><path class="st0" d="M161.6 199.5H8.4c-3.8 0-6.9-3.1-6.9-6.9V77.4c0-3.8 3.1-6.9 6.9-6.9h153.1c3.8 0 6.9 3.1 6.9 6.9v115.1c.1 3.9-3 7-6.8 7z"/><circle class="st1" cx="13.5" cy="78.5" r="3"/><circle class="st1" cx="24" cy="78.5" r="3"/><circle class="st1" cx="34.5" cy="78.5" r="3"/><path class="st0" d="M2 87h167M12.5 70.5l66-66c3.6-3.6 9.4-3.6 13 0l66 66"/><circle class="st0" cx="85" cy="9.5" r="8"/></svg>