<svg id="Layer_1" xmlns="http://www.w3.org/2000/svg" viewBox="0 0 22.9 14"><style>.st0{fill:#201600}.st1{fill:none;stroke:#201600;stroke-miterlimit:10}</style><path class="st0" d="M15.9 1c3.3 0 6 2.7 6 6s-2.7 6-6 6h-6V7c0-3.3 2.7-6 6-6m0-1c-3.9 0-7 3.1-7 7v7h7c3.9 0 7-3.1 7-7s-3.2-7-7-7z"/><path class="st0" d="M15.9 4.9c1.1 0 2 .9 2 2s-.9 2-2 2-2-.9-2-2 .9-2 2-2m0-1c-1.7 0-3 1.3-3 3s1.3 3 3 3 3-1.3 3-3c0-1.6-1.3-3-3-3zM8.9 8v5H1V8h7.9m1-1H0v7h9.9V7z"/><path class="st1" d="M3.5 13.1V7.8m2 3.2V7.8m2 2.2V7.8"/></svg>