<svg id="Layer_1" xmlns="http://www.w3.org/2000/svg" viewBox="0 0 116.5 72"><style>.st0{fill:#a7a7a7}.st1{fill:#7e7e7e}.st2{fill:#c3c3c3}.st3{fill:#fff}</style><path class="st0" d="M42.5 7.7H74v56.6H42.5z"/><path id="XMLID_330_" class="st1" d="M44.5 36c0-11.5 5.4-21.7 13.7-28.3C52.1 2.9 44.4 0 36 0 16.1 0 0 16.1 0 36s16.1 36 36 36c8.4 0 16.1-2.9 22.2-7.7-8.3-6.6-13.7-16.8-13.7-28.3z"/><path class="st2" d="M116.5 36c0 19.9-16.1 36-36 36-8.4 0-16.1-2.9-22.2-7.7C66.6 57.7 72 47.5 72 36S66.6 14.3 58.2 7.7C64.4 2.9 72.1 0 80.5 0c19.9 0 36 16.1 36 36z"/><path id="XMLID_1775_" class="st3" d="M19.8 42.7v-6.1c0-2.3-1.5-3.9-3.8-3.9-1.2 0-2.5.4-3.4 1.7-.7-1.1-1.7-1.7-3.2-1.7-1 0-2.1.3-2.9 1.5V33H4.3v9.8h2.1v-5.4c0-1.7.9-2.6 2.4-2.6 1.4 0 2.1.9 2.1 2.6v5.4H13v-5.4c0-1.7 1-2.6 2.4-2.6 1.5 0 2.1.9 2.1 2.6v5.4h2.3zM51.6 33h-3.5v-3H46v3h-2v1.9h2v4.5c0 2.3.9 3.6 3.4 3.6.9 0 2-.3 2.7-.8l-.6-1.8c-.6.4-1.3.6-1.9.6-1.1 0-1.4-.7-1.4-1.6V35h3.5v-2zm18.1-.3c-1.2 0-2 .6-2.6 1.4V33H65v9.8h2.1v-5.5c0-1.6.7-2.5 2.1-2.5.4 0 .9.1 1.3.2l.7-2c-.4-.2-1-.3-1.5-.3zm-27.4 1c-1-.7-2.4-1-4-1-2.5 0-4.1 1.2-4.1 3.1 0 1.6 1.2 2.6 3.4 2.9l1 .1c1.2.2 1.7.5 1.7 1 0 .8-.8 1.2-2.2 1.2-1.5 0-2.5-.5-3.2-1l-1 1.7c1.2.9 2.6 1.3 4.2 1.3 2.8 0 4.5-1.3 4.5-3.2 0-1.7-1.3-2.6-3.4-2.9l-1-.1c-.9-.1-1.7-.3-1.7-1s.7-1.1 1.9-1.1 2.5.5 3 .8l.9-1.8zm57-1c-1.2 0-2 .6-2.6 1.4V33h-2.1v9.8h2.1v-5.5c0-1.6.7-2.5 2.1-2.5.4 0 .9.1 1.3.2l.7-2c-.5-.2-1.1-.3-1.5-.3zm-27.4 5.1c0 3 2.1 5.1 5.2 5.1 1.5 0 2.5-.3 3.5-1.2l-1-1.7c-.8.7-1.6 1-2.6 1-1.7 0-2.9-1.2-2.9-3.1 0-1.9 1.2-3.1 2.9-3.1.9 0 1.8.3 2.6.9l1-1.7c-1.1-.8-2-1.2-3.5-1.2-3.2-.1-5.2 2.1-5.2 5zm19.9 0V33h-2.1v1.2c-.7-.9-1.7-1.4-3.1-1.4-2.7 0-4.9 2.1-4.9 5.1 0 3 2.1 5.1 4.9 5.1 1.4 0 2.4-.6 3.1-1.4v1.2h2.1v-5zm-7.9 0c0-1.7 1.1-3.1 3-3.1 1.8 0 2.9 1.3 2.9 3.1s-1.2 3.1-2.9 3.1c-1.9.1-3-1.3-3-3.1zm-25.7-5.1c-2.9 0-4.9 2.1-4.9 5.1 0 3.1 2.1 5.1 5 5.1 1.5 0 2.8-.4 4-1.4l-1-1.6c-.8.7-1.9 1-2.8 1-1.4 0-2.6-.6-2.9-2.4h7.3v-.8c-.1-2.9-1.9-5-4.7-5zm0 1.9c1.4 0 2.2.9 2.5 2.4h-5.1c.2-1.4 1.1-2.4 2.6-2.4zm53.3 3.2V29h-2.1v5.1c-.7-.9-1.7-1.4-3.1-1.4-2.7 0-4.9 2.1-4.9 5.1 0 3 2.1 5.1 4.9 5.1 1.4 0 2.4-.6 3.1-1.4v1.2h2.1v-4.9zm-7.9 0c0-1.7 1.1-3.1 3-3.1 1.8 0 2.9 1.3 2.9 3.1s-1.2 3.1-2.9 3.1c-1.9.1-3-1.3-3-3.1zm-71.8 0V33h-2.1v1.2c-.7-.9-1.7-1.4-3.1-1.4-2.7 0-4.9 2.1-4.9 5.1 0 3 2.1 5.1 4.9 5.1 1.4 0 2.4-.6 3.1-1.4v1.2h2.1v-5zm-7.9 0c0-1.7 1.1-3.1 3-3.1 1.8 0 2.9 1.3 2.9 3.1s-1.2 3.1-2.9 3.1c-1.9.1-3-1.3-3-3.1z"/></svg>