<?xml version="1.0" encoding="utf-8"?>
<!-- Generator: Adobe Illustrator 16.0.0, SVG Export Plug-In . SVG Version: 6.00 Build 0)  -->
<!DOCTYPE svg PUBLIC "-//W3C//DTD SVG 1.1//EN" "http://www.w3.org/Graphics/SVG/1.1/DTD/svg11.dtd">
<svg  version="1.1" id="Layer_1"  xmlns="http://www.w3.org/2000/svg" xmlns:xlink="http://www.w3.org/1999/xlink" x="0px" y="0px">
<symbol viewBox="0 0 12 12" id="arrow"><title>Rectangle 540 copy 2</title><path stroke-width="2" d="M0,9l6.02-6L12,9"/></symbol><symbol viewBox="0 0 11.919090321382555 6.772757771276176" id="arrow-bottom"><title>Rectangle 18</title><path d="M10.463.596S7.343 5.389 5.96 5.389C4.576 5.389 1.456.596 1.456.596"/></symbol><symbol viewBox="0 0 35.8566011263531 18.51597917625668" id="arrow-bottom-home"><title>Rectangle 7</title><path d="M34.927 1.461s-9.816 16.296-16.999 16.296c-7.184 0-17-16.296-17-16.296"/></symbol><symbol id="bag" viewBox="0 0 18.7 17"><style>.adst0{fill:none;stroke:red;stroke-miterlimit:10}</style><path class="adst0" d="M15.6 16.5H3.1c-1.4 0-2.6-1.1-2.6-2.6L1.4.5h16l.9 13.4c-.1 1.4-1.3 2.6-2.7 2.6z"/><path class="adst0" d="M12.7 3.5s-1.4 5.2-3.4 5.2-3.5-5.2-3.5-5.2"/></symbol><symbol id="basket" viewBox="0 0 15 13"><style>.aest0{fill:#8c8c8c}.aest1{fill:none;stroke:#fff;stroke-miterlimit:10}</style><path class="aest0" d="M1.5 0L0 9.6C-.2 11.4 1.2 13 3 13h9c1.8 0 3.2-1.6 3-3.4L13.5 0h-12z"/><path class="aest1" d="M11.5 3L9.1 7.1c-.7 1.3-2.6 1.3-3.3 0L3.5 3"/></symbol><symbol id="cellphone" viewBox="0 0 10 15"><style>.afst0{fill:#fff}.afst1{fill:none;stroke:#fff;stroke-miterlimit:10}</style><g id="afphone"><path class="afst0" d="M9 1v13H1V1h8m1-1H0v15h10V0z"/><path class="afst1" d="M.5 4.5h8.7m-8.7 6h8.7m-6.2 2h4m-3-10h2"/></g></symbol><symbol id="clock" viewBox="0 0 15 15"><style>.agst0{fill:none;stroke:#000;stroke-miterlimit:10}</style><path d="M7.5 1C11.1 1 14 3.9 14 7.5S11.1 14 7.5 14 1 11.1 1 7.5 3.9 1 7.5 1m0-1C3.4 0 0 3.4 0 7.5S3.4 15 7.5 15 15 11.6 15 7.5 11.6 0 7.5 0z"/><path class="agst0" d="M7.5 4v4m1 0v1m1 0v1"/></symbol><symbol viewBox="0 0 35 28" id="column"><title>Rectangle 507 copy 5</title><path d="M0 28V0h16v28zm19 0V0h16v28z"/></symbol><symbol id="core" viewBox="0 0 20.4 17.1"><style>.aist0{fill:none;stroke:#fff;stroke-miterlimit:10}</style><path class="aist0" d="M14.7.5c-1.9 0-3.5 1-4.5 2.5C9.4 1.5 7.6.5 5.9.5 2.9.5.5 2.8.5 5.9c0 1.6.7 3 1.9 4.1l7.8 6.5L18 10c1.2-1 1.9-2.5 1.9-4.1 0-3.1-2.3-5.4-5.2-5.4z"/></symbol><symbol id="fb" viewBox="0 0 22.2 22.2"><style>.ajst0{fill-rule:evenodd;clip-rule:evenodd}</style><path class="ajst0" d="M19.3 0H2.8C1.3 0 0 1.3 0 2.8v16.5c0 1.6 1.3 2.8 2.8 2.8h8.6V12H9.3V9h2.1V7c0-.9 0-2.2.7-3.1.7-.9 1.6-1.5 3.2-1.5 2.6 0 3.7.4 3.7.4l-.5 3s-.9-.2-1.7-.2c-.8 0-1.5.3-1.5 1.1V9h3.3l-.2 3h-3v10.2h4.1c1.6 0 2.8-1.3 2.8-2.8V2.8c-.1-1.5-1.4-2.8-3-2.8z"/></symbol><symbol viewBox="0 0 59.625 76.365" id="file"><g stroke-width="3" stroke-miterlimit="10"><path d="M36.291 45.893v11.563c0 9.579-7.765 17.345-17.345 17.345S1.601 67.036 1.601 57.456v-35.16" stroke-linejoin="round"/><path d="M24.727 23.41v34.047a5.782 5.782 0 1 1-11.564 0V13.131c0-6.386 5.177-11.563 11.563-11.563s11.563 5.177 11.563 11.563v9.636" stroke-linejoin="round"/><path d="M47.854 22.767v23.126M59.417 34.33H36.291"/></g></symbol><symbol id="human" viewBox="0 0 20.1 20.1"><style>.alst0{fill:none;stroke:#fff;stroke-miterlimit:10}</style><g id="alhuman"><circle class="alst0" cx="10" cy="10" r="9.5"/><ellipse class="alst0" cx="10" cy="8.5" rx="2.7" ry="3"/><path class="alst0" d="M18.1 13.6c-1.4-1-3.1-1.8-4.9-2.2M1.9 13.6c1.4-1 3.1-1.8 4.9-2.2"/></g></symbol><symbol id="info" viewBox="0 0 13 13"><style>.amst0{fill:#201600}</style><path class="amst0" d="M6.5 1c3 0 5.5 2.5 5.5 5.5S9.5 12 6.5 12 1 9.5 1 6.5 3.5 1 6.5 1m0-1C2.9 0 0 2.9 0 6.5S2.9 13 6.5 13 13 10.1 13 6.5 10.1 0 6.5 0z"/><path class="amst0" d="M6 4.9h1v5H6zm0-2h1v1H6z"/></symbol><symbol id="inst" viewBox="0 0 22.2 22.2"><style>.anst0{fill-rule:evenodd;clip-rule:evenodd}</style><path class="anst0" d="M2.8 0h16.5c1.6 0 2.8 1.3 2.8 2.8v16.5c0 1.6-1.3 2.8-2.8 2.8H2.8c-1.6 0-2.8-1.3-2.8-2.8V2.8C0 1.3 1.3 0 2.8 0zm13.4 2.5c-.5 0-1 .4-1 1v2.4c0 .5.4 1 1 1h2.5c.5 0 1-.4 1-1V3.5c0-.5-.4-1-1-1h-2.5zm3.5 6.9h-2c.2.6.3 1.2.3 1.9 0 3.7-3.1 6.7-6.9 6.7-3.8 0-6.9-3-6.9-6.7 0-.7.1-1.3.3-1.9h-2v9.4c0 .5.4.9.9.9h15.5c.5 0 .9-.4.9-.9V9.4h-.1zm-8.6-2.7c-2.5 0-4.5 1.9-4.5 4.3s2 4.3 4.5 4.3 4.5-1.9 4.5-4.3c0-2.3-2-4.3-4.5-4.3z"/></symbol><symbol id="insta" viewBox="0 0 15 14"><style>.aost0{fill:none;stroke:#000;stroke-miterlimit:10}</style><path d="M13 1c.6 0 1 .4 1 1v10c0 .6-.4 1-1 1H2c-.6 0-1-.4-1-1V2c0-.6.4-1 1-1h11m0-1H2C.9 0 0 .9 0 2v10c0 1.1.9 2 2 2h11c1.1 0 2-.9 2-2V2c0-1.1-.9-2-2-2z"/><path d="M7.5 4.5C8.9 4.5 10 5.6 10 7S8.9 9.5 7.5 9.5 5 8.4 5 7s1.1-2.5 2.5-2.5m0-1C5.6 3.5 4 5.1 4 7s1.6 3.5 3.5 3.5S11 8.9 11 7 9.4 3.5 7.5 3.5z"/><circle cx="12" cy="3" r=".5"/><path d="M12 2c-.6 0-1 .4-1 1s.4 1 1 1 1-.4 1-1-.4-1-1-1z"/><path class="aost0" d="M15 5.5h-4.5m-6 0h-4"/></symbol><symbol id="like" viewBox="7 7 14 14"><style>.apst0{fill:none;stroke:#000;stroke-miterlimit:10;stroke-width:1.4}</style><path class="apst0" stroke="#000000" stroke-width="1.4" d="M14,20c-4-3.1-6-5.607-6-7.525C8,10.555,9.29,9,11.131,9	C12.59,9,14,10.594,14,10.594S15.41,9,16.869,9C18.711,9,20,10.555,20,12.475C20,14.393,18,16.9,14,20z"/></symbol><symbol id="logo" viewBox="0 0 145.6 42.8"><style>.aqst0{fill:#fff}</style><path class="aqst0" d="M14.7 26h9.6v5.4c0 7.6-4.1 11.4-12.2 11.4-3.7 0-6.5-.8-8.4-2.4-2.4-2-3.6-5.2-3.6-9.6V12c0-4.4 1.2-7.5 3.6-9.5C5.6.8 8.5 0 12.1 0c3.9 0 6.8.7 8.7 2.1 2.3 1.7 3.5 4.7 3.5 8.8v4.5h-9.6V9.8c0-1-.2-1.7-.6-2.3-.4-.6-1.1-.9-2-.9-.9 0-1.5.3-1.9.9-.4.6-.6 1.4-.6 2.3V33c0 1 .2 1.8.5 2.4.4.6 1 .9 1.9.9 1 0 1.6-.3 2-.9.4-.6.6-1.4.6-2.3V26zm12.1 16V.8h9.7c6.4 0 10.4.8 12.1 2.4 1.6 1.5 2.4 4 2.4 7.6 0 2.6-.4 4.7-1.3 6.1-1.1 1.8-2.9 2.8-5.5 3.1v.4c2.8 0 4.7 1 5.7 2.9.7 1.4 1.1 3.7 1.1 7 0 5.3-1.2 8.6-3.5 10.1-1.7 1.1-5.4 1.6-11.1 1.6h-9.6zm9.6-35.3v10.9H38c1.2 0 2.1-.3 2.5-.8.7-.8 1-2.3 1-4.6 0-2.2-.3-3.6-.8-4.2-.6-.9-2-1.3-4.3-1.3zm0 16.7v12.7c.2 0 .6.1 1 .1 1.8 0 3-.6 3.5-1.9.3-.8.5-2.5.5-4.9 0-2.8-.3-4.5-1-5.1-.4-.6-1.7-.9-4-.9zm31 18.6V23.2h-1.6c-1 0-1.8.4-2.5 1.1-.7.8-1 1.8-1 3.2v8.7c0 1.1-.1 2.1-.3 3.1-.2.9-.6 1.8-1.1 2.6h-9.7c.5-.7.9-1.6 1.1-2.7.2-1 .3-2.1.3-3.1v-8.6c0-2.8.6-4.8 1.8-6 1.2-1.2 3.1-1.8 5.5-1.8-2.5-.5-4.4-1.5-5.6-3.1-1.2-1.6-1.8-3.7-1.8-6.4 0-4 1.3-6.7 3.8-8.1 2-1 5.6-1.6 10.8-1.6H77V42h-9.6zm0-35.3c-2.1 0-3.5.4-4.1 1.1-.6.7-.9 2.1-.9 4.2s.3 3.5 1 4.2c.6.8 2 1.1 4.1 1.1V6.7zm17.7.4h-6.7V.8h23V7h-6.7v35h-9.6V7.1zM102.8.8H116l5.3 41.2h-9.5l-1.1-10.2h-5.2L103.9 42h-8.1l7-41.2zm3.7 24.8h3.5l-1.7-18.3-1.8 18.3z"/><path class="aqst0" d="M136 42V23.2h-1.6c-1 0-1.8.4-2.5 1.1-.7.8-1 1.8-1 3.2v8.7c0 1.1-.1 2.1-.3 3.1-.2.9-.6 1.8-1.1 2.6h-9.7c.5-.7.9-1.6 1.1-2.7.2-1 .3-2.1.3-3.1v-8.6c0-2.8.6-4.8 1.8-6 1.2-1.2 3.1-1.8 5.5-1.8-2.5-.5-4.4-1.5-5.6-3.1-1.2-1.6-1.8-3.7-1.8-6.4 0-4 1.3-6.7 3.8-8.1 2-1 5.6-1.6 10.8-1.6h9.7V42H136zm0-35.3c-2.1 0-3.5.4-4.1 1.1-.6.7-.9 2.1-.9 4.2s.3 3.5 1 4.2c.6.8 2 1.1 4.1 1.1V6.7z"/></symbol><symbol id="mail" viewBox="0 0 11 9"><style>.arst0{fill:#201600}</style><path class="arst0" d="M0 0v9h11V0H0zm9 1v1h1v5H9v1H2V7H1V2h1V1h7z"/><path class="arst0" d="M8 2h1v1H8zM7 5h1v1H7zm1 1h1v1H8zM2 6h1v1H2zm5-2H6v1h1V4h1V3H7zM6 6V5H5v1h1zM2 2h1v1H2zm2 2v1H3v1h1V5h1V4H4V3H3v1z"/></symbol><symbol viewBox="0 0 15 12" id="mail-new"><path d="M14 1v10H1V1h13m1-1H0v12h15V0z"/><path d="M1 1h1v1H1zm1 1h1v1H2zm1 1h1v1H3zm1 1h1v1H4zm1 1h1v1H5zm1 1h1v1H6zm1 1h1v1H7zm1-1h1v1H8zm1-1h1v1H9zm1-1h1v1h-1zm1-1h1v1h-1zm1-1h1v1h-1zm1-1h1v1h-1zm-3 6h1v1h-1zm1 1h1v1h-1zm1 1h1v1h-1zm1 1h1v1h-1zM5 8H4V7h1z"/><path d="M8 8H7V7h1zM4 9H3V8h1zm-1 1H2V9h1zm-1 1H1v-1h1z"/></symbol><symbol viewBox="0 0 11 17" id="medal"><path d="M5.5 1C8 1 10 3 10 5.5S8 10 5.5 10 1 8 1 5.5 3 1 5.5 1m0-1C2.5 0 0 2.5 0 5.5S2.5 11 5.5 11 11 8.5 11 5.5 8.5 0 5.5 0z"/><path d="M8 9.9v4.8l-1.1-2.2-.3-.5H4.4l-.3.6L3 14.8V9.9c-.4-.2-.7-.5-1-.9v8h1l2-4h1l2 4h1V9c-.3.4-.6.7-1 .9z"/><ellipse transform="rotate(-45.001 5.5 5.5)" class="atst0" cx="5.5" cy="5.5" rx="3.5" ry="3.5"/><path d="M7.3 3.7c1 1 1 2.6 0 3.5L8 8c1.3-1.4 1.3-3.6 0-5-1.4-1.3-3.6-1.3-5 0l.7.7c1-.9 2.6-.9 3.6 0z"/></symbol><symbol viewBox="0 0 17 23" id="medal-header"><path d="M8.5 1C12.6 1 16 4.4 16 8.5S12.6 16 8.5 16 1 12.6 1 8.5 4.4 1 8.5 1m0-1C3.8 0 0 3.8 0 8.5S3.8 17 8.5 17 17 13.2 17 8.5 13.2 0 8.5 0z"/><path d="M13 21.6l-3.3-3.3-.3-.3H7.6l-.3.3L4 21.6V15l-1-1v9h1l4-4h1l4 4h1v-9l-1 1z"/></symbol><symbol id="phone" viewBox="0 0 10 13"><style>.avst0{fill:#201600}</style><path class="avst0" d="M0 0v13h10V0H0zm9 1v2H1V1h8zm0 3v5H1V4h8zm-2 8v-1H3v1H1v-2h8v2H7z"/><path class="avst0" d="M4 1h2v1H4z"/></symbol><symbol id="phone-new" viewBox="0 0 13 15"><style>.awst0{fill:none;stroke:#000;stroke-miterlimit:10}</style><path d="M12 1v13H1V1h11m1-1H0v15h13V0z"/><path class="awst0" d="M5 1.5h3m-4 12h5M.5 3.5h12M0 11.5h12"/></symbol><symbol viewBox="0 0 42 28" id="plate"><title>Rectangle 1047 copy 9</title><path d="M0 14V0h13v14zm0 14V16h13v12zm15-14V0h12v14zm0 14V16h12v12zm14-14V0h13v14zm0 14V16h13v12z"/></symbol><symbol viewBox="0 0 15.3 17" id="point"><path d="M7.6 1c3.7 0 6.6 3 6.6 6.6 0 4.9-5.2 7.6-6.6 8.3C6.2 15.2 1 12.5 1 7.6 1 4 4 1 7.6 1m0-1C3.4 0 0 3.4 0 7.6 0 14 7.6 17 7.6 17s7.6-3 7.6-9.4C15.3 3.4 11.8 0 7.6 0z"/><path d="M7.8 6c.8 0 1.5.7 1.5 1.5S8.6 9 7.8 9s-1.5-.7-1.5-1.5S6.9 6 7.8 6m0-1C6.4 5 5.3 6.1 5.3 7.5S6.4 10 7.8 10s2.5-1.1 2.5-2.5S9.1 5 7.8 5z"/></symbol><symbol id="search" viewBox="0 0 19.6 20.2"><style>.azst0{fill:none;stroke:#fff;stroke-miterlimit:10}</style><g id="azsearch"><circle class="azst0" cx="8.8" cy="8.8" r="8.3"/><path class="azst0" d="M14.4 14.9l4.8 4.9"/></g></symbol><symbol id="star" viewBox="0 0 24.4 25"><style>.bast0{fill:#757575}</style><path class="bast0" d="M14.2 1v7.9l1.5-1 5.2-3.2L23 8.1l-5.7 3.5-1.3.9 1.4.8 5.7 3.5-2.1 3.4-5.2-3.2-1.5-1v8h-4v-7.9l-1.5 1-5.2 3.2-2.1-3.4 5.7-3.5 1.4-.8-1.4-.8-5.8-3.7 2.1-3.4 5.2 3.2 1.5 1V1h4m1-1h-6v7.1l-6-3.8L0 8.4l6.5 4.1L0 16.6l3.2 5.1 6-3.8V25h6v-7.1l6 3.8 3.2-5.1-6.5-4.1 6.5-4.1-3.2-5.1-6 3.8V0z"/></symbol><symbol id="vk" viewBox="0 0 33.5 19.1"><style>.bbvk{fill:#000;clip-rule:evenodd}</style><path class="bbvk" d="M16.4 19.1h2s.6-.1.9-.4c.3-.3.3-.9.3-.9s0-2.7 1.2-3.1c1.2-.4 2.8 2.6 4.5 3.8 1.3.9 2.2.7 2.2.7l4.5-.1s2.3-.1 1.2-2c-.1-.2-.6-1.4-3.3-3.9-2.8-2.6-2.4-2.2 1-6.7 2.1-2.7 2.9-4.4 2.6-5.1-.2-.7-1.8-.5-1.8-.5h-5s-.4-.1-.7.1c-.3.2-.4.5-.4.5s-.8 2.1-1.9 3.9c-2.2 3.8-3.1 4-3.5 3.8-.9-.6-.6-2.2-.6-3.4 0-3.7.6-5.2-1.1-5.6-.5-.1-1-.2-2.4-.2-1.8 0-3.3 0-4.2.4-.6.3-1 .9-.7.9.3 0 1.1.2 1.5.7.5.7.5 2.3.5 2.3s.3 4.4-.7 4.9c-.7.4-1.6-.4-3.6-3.8-1-1.8-1.8-3.7-1.8-3.7s-.2-.3-.4-.5C6.3.9 5.9.8 5.9.8H1.1s-.7 0-1 .3c-.2.3 0 .9 0 .9s3.8 8.8 8 13.2c3.9 4.1 8.3 3.9 8.3 3.9z"/></symbol><symbol viewBox="0 0 15.89538119239478 6.806107166034963" id="arrow-bottom-new"><title>Arrow bottom contact</title><polyline stroke-width="2" stroke-linecap="round" stroke-linejoin="round" stroke-miterlimit="10" points="
	13.65,1.5 7.576,7.576 1.5,1.5 "/></symbol></svg>